999
FreeCAD v0.18 4 (GitTag)
  0
SECTION
  2
HEADER
  9
$ACADVER
  1
AC1014
  9
$ACADMAINTVER
 70
     9
  9
$DWGCODEPAGE
  3
ANSI_1252
  9
$TEXTSTYLE
  7
STANDARD
  9
$DIMSTYLE
  2
STANDARD
  9
$DIMTXSTY
  7
STANDARD
  9
$CMLSTYLE
  2
STANDARD
  9
$HANDSEED
  5
FFF
  0
ENDSEC
  0
SECTION
  2
CLASSES
  0
CLASS
  1
ACDBDICTIONARYWDFLT
  2
AcDbDictionaryWithDefault
  3
ObjectDBX Classes
 90
        0
280
     0
281
     0
  0
CLASS
  1
XRECORD
  2
AcDbXrecord
  3
ObjectDBX Classes
 90
        0
280
     0
281
     0
  0
CLASS
  1
LWPOLYLINE
  2
AcDbPolyline
  3
ObjectDBX Classes
 90
        0
280
     0
281
     1
  0
ENDSEC
  0
SECTION
  2
TABLES
  0
TABLE
  2
VPORT
  5
20
330
0
100
AcDbSymbolTable
 70
     1
  0
VPORT
  5
21
330
20
100
AcDbSymbolTableRecord
100
AcDbViewportTableRecord
  2
*ACTIVE
 70
     0
  0
ENDTAB
  0
TABLE
  2
LTYPE
  5
22
330
0
100
AcDbSymbolTable
 70
     1
  0
LTYPE
  5
23
330
21
100
AcDbSymbolTableRecord
100
AcDbLinetypeTableRecord
  2
BYBLOCK
 70
     0
  3

 72
    65
 73
     0
 40
0.0
  0
LTYPE
  5
24
330
21
100
AcDbSymbolTableRecord
100
AcDbLinetypeTableRecord
  2
BYLAYER
 70
     0
  3

 72
    65
 73
     0
 40
0.0
  0
LTYPE
  5
25
330
21
100
AcDbSymbolTableRecord
100
AcDbLinetypeTableRecord
  2
CONTINUOUS
 70
     0
  3
Solid line
 72
    65
 73
     0
 40
0.0
  0
ENDTAB
  0
TABLE
  2
LAYER
  5
31
330
0
100
AcDbSymbolTable
 70
7
  0
LAYER
  5
32
330
31
100
AcDbSymbolTableRecord
100
AcDbLayerTableRecord
  2
0
 70
   0
 62
   7
  6
CONTINUOUS
  0
LAYER
  5
33
330
31
100
AcDbSymbolTableRecord
100
AcDbLayerTableRecord
  2
View
 70
    0
 62
    7
  6
CONTINUOUS
  0
LAYER
  5
34
330
31
100
AcDbSymbolTableRecord
100
AcDbLayerTableRecord
  2
View001
 70
    0
 62
    7
  6
CONTINUOUS
  0
LAYER
  5
35
330
31
100
AcDbSymbolTableRecord
100
AcDbLayerTableRecord
  2
View002
 70
    0
 62
    7
  6
CONTINUOUS
  0
LAYER
  5
36
330
31
100
AcDbSymbolTableRecord
100
AcDbLayerTableRecord
  2
View003
 70
    0
 62
    7
  6
CONTINUOUS
  0
LAYER
  5
37
330
31
100
AcDbSymbolTableRecord
100
AcDbLayerTableRecord
  2
View004
 70
    0
 62
    7
  6
CONTINUOUS
  0
LAYER
  5
38
330
31
100
AcDbSymbolTableRecord
100
AcDbLayerTableRecord
  2
View005
 70
    0
 62
    7
  6
CONTINUOUS
  0
ENDTAB
  0
TABLE
  2
STYLE
  5
60
330
0
100
AcDbSymbolTable
 70
     2
  0
STYLE
  5
61
330
60
100
AcDbSymbolTableRecord
100
AcDbTextStyleTableRecord
  2
STANDARD
 70
     0
 40
0.0
 41
1.0
 50
0.0
 71
     0
 42
2.5
  3
arial.ttf
  4

  0
STYLE
  5
62
330
60
100
AcDbSymbolTableRecord
100
AcDbTextStyleTableRecord
  2
ANNOTATIVE
 70
     0
 40
0.0
 41
1.0
 50
0.0
 71
     0
 42
2.5
  3
arial.ttf
  4

  0
ENDTAB
  0
TABLE
  2
VIEW
  5
63
330
0
100
AcDbSymbolTable
 70
     0
  0
ENDTAB
  0
TABLE
  2
UCS
  5
64
330
0
100
AcDbSymbolTable
 70
     0
  0
ENDTAB
  0
TABLE
  2
APPID
  5
65
330
0
100
AcDbSymbolTable
 70
     2
  0
APPID
  5
66
330
65
100
AcDbSymbolTableRecord
100
AcDbRegAppTableRecord
  2
ACAD
 70
     0
  0
APPID
  5
67
330
65
100
AcDbSymbolTableRecord
100
AcDbRegAppTableRecord
  2
ACADANNOTATIVE
 70
     0
  0
ENDTAB
  0
TABLE
  2
DIMSTYLE
  5
68
330
0
100
AcDbSymbolTable
 70
     2
  0
DIMSTYLE
105
69
330
68
100
AcDbSymbolTableRecord
100
AcDbDimStyleTableRecord
  2
STANDARD
 70
     0
  3

  4

  5

  6

  7

 40
0.0
 41
2.5
 42
0.625
 43
3.75
 44
1.25
 45
0.0
 46
0.0
 47
0.0
 48
0.0
140
2.5
141
2.5
142
0.0
143
0.03937007874016
144
1.0
145
0.0
146
1.0
147
0.625
 71
     0
 72
     0
 73
     0
 74
     0
 75
     0
 76
     0
 77
     1
 78
     8
170
     0
171
     3
172
     1
173
     0
174
     0
175
     0
176
     0
177
     0
178
     0
270
     2
271
     2
272
     2
273
     2
274
     3
340
61
275
     0
280
     0
281
     0
282
     0
283
     0
284
     8
285
     0
286
     0
287
     3
288
     0
  0
ENDTAB
  0
TABLE
  2
BLOCK_RECORD
  5
111
330
0
100
AcDbSymbolTable
  70
5
  0
BLOCK_RECORD
  5
112
330
111
100
AcDbSymbolTableRecord
100
AcDbBlockTableRecord
  2
*MODEL_SPACE
  0
BLOCK_RECORD
  5
113
330
111
100
AcDbSymbolTableRecord
100
AcDbBlockTableRecord
  2
*PAPER_SPACE
  0
ENDTAB
  0
ENDSEC
  0
SECTION
  2
BLOCKS
  0
BLOCK
  5
211
330
112
100
AcDbEntity
  8
0
100
AcDbBlockBegin
  2
*MODEL_SPACE
 70
   0
 10
0
 20
0
 30
0
  3
*MODEL_SPACE
  1
 
  0
ENDBLK
  5
212
330
112
100
AcDbEntity
  8
0
100
AcDbBlockEnd
  0
BLOCK
  5
213
330
113
100
AcDbEntity
 67
1
  8
0
100
AcDbBlockBegin
  2
*PAPER_SPACE
 70
   0
 10
0
 20
0
 30
0
  3
*PAPER_SPACE
  1
 
  0
ENDBLK
  5
214
330
113
100
AcDbEntity
 67
    1
  8
0
100
AcDbBlockEnd
  0
ENDSEC
  0
SECTION
  2
ENTITIES
  0
LINE
  5
301
330
112
100
AcDbEntity
  8
View
100
AcDbLine
 10
15.9468
 20
280.738
 30
0
 11
155.947
 21
280.738
 31
0
  0
LINE
  5
302
330
112
100
AcDbEntity
  8
View
100
AcDbLine
 10
155.947
 20
280.738
 30
0
 11
155.947
 21
168.738
 31
0
  0
LINE
  5
303
330
112
100
AcDbEntity
  8
View
100
AcDbLine
 10
155.947
 20
168.738
 30
0
 11
15.9468
 21
168.738
 31
0
  0
LINE
  5
304
330
112
100
AcDbEntity
  8
View
100
AcDbLine
 10
15.9468
 20
168.738
 30
0
 11
15.9468
 21
280.738
 31
0
  0
LINE
  5
305
330
112
100
AcDbEntity
  8
View
100
AcDbLine
 10
135.897
 20
171.688
 30
0
 11
135.897
 21
174.788
 31
0
  0
LINE
  5
306
330
112
100
AcDbEntity
  8
View
100
AcDbLine
 10
140.997
 20
171.688
 30
0
 11
135.897
 21
171.688
 31
0
  0
LINE
  5
307
330
112
100
AcDbEntity
  8
View
100
AcDbLine
 10
140.997
 20
174.788
 30
0
 11
140.997
 21
171.688
 31
0
  0
LINE
  5
308
330
112
100
AcDbEntity
  8
View
100
AcDbLine
 10
135.897
 20
174.788
 30
0
 11
140.997
 21
174.788
 31
0
  0
LINE
  5
309
330
112
100
AcDbEntity
  8
View
100
AcDbLine
 10
146.897
 20
189.688
 30
0
 11
146.897
 21
194.788
 31
0
  0
LINE
  5
30A
330
112
100
AcDbEntity
  8
View
100
AcDbLine
 10
149.997
 20
189.688
 30
0
 11
146.897
 21
189.688
 31
0
  0
LINE
  5
30B
330
112
100
AcDbEntity
  8
View
100
AcDbLine
 10
149.997
 20
194.788
 30
0
 11
149.997
 21
189.688
 31
0
  0
LINE
  5
30C
330
112
100
AcDbEntity
  8
View
100
AcDbLine
 10
146.897
 20
194.788
 30
0
 11
149.997
 21
194.788
 31
0
  0
LINE
  5
30D
330
112
100
AcDbEntity
  8
View
100
AcDbLine
 10
21.8968
 20
189.688
 30
0
 11
21.8968
 21
194.788
 31
0
  0
LINE
  5
30E
330
112
100
AcDbEntity
  8
View
100
AcDbLine
 10
24.9968
 20
189.688
 30
0
 11
21.8968
 21
189.688
 31
0
  0
LINE
  5
30F
330
112
100
AcDbEntity
  8
View
100
AcDbLine
 10
24.9968
 20
194.788
 30
0
 11
24.9968
 21
189.688
 31
0
  0
LINE
  5
310
330
112
100
AcDbEntity
  8
View
100
AcDbLine
 10
21.8968
 20
194.788
 30
0
 11
24.9968
 21
194.788
 31
0
  0
LINE
  5
311
330
112
100
AcDbEntity
  8
View
100
AcDbLine
 10
30.8968
 20
171.688
 30
0
 11
30.8968
 21
174.788
 31
0
  0
LINE
  5
312
330
112
100
AcDbEntity
  8
View
100
AcDbLine
 10
35.9968
 20
171.688
 30
0
 11
30.8968
 21
171.688
 31
0
  0
LINE
  5
313
330
112
100
AcDbEntity
  8
View
100
AcDbLine
 10
35.9968
 20
174.788
 30
0
 11
35.9968
 21
171.688
 31
0
  0
LINE
  5
314
330
112
100
AcDbEntity
  8
View
100
AcDbLine
 10
30.8968
 20
174.788
 30
0
 11
35.9968
 21
174.788
 31
0
  0
LINE
  5
315
330
112
100
AcDbEntity
  8
View
100
AcDbLine
 10
146.897
 20
254.688
 30
0
 11
146.897
 21
259.788
 31
0
  0
LINE
  5
316
330
112
100
AcDbEntity
  8
View
100
AcDbLine
 10
149.997
 20
254.688
 30
0
 11
146.897
 21
254.688
 31
0
  0
LINE
  5
317
330
112
100
AcDbEntity
  8
View
100
AcDbLine
 10
149.997
 20
259.788
 30
0
 11
149.997
 21
254.688
 31
0
  0
LINE
  5
318
330
112
100
AcDbEntity
  8
View
100
AcDbLine
 10
146.897
 20
259.788
 30
0
 11
149.997
 21
259.788
 31
0
  0
LINE
  5
319
330
112
100
AcDbEntity
  8
View
100
AcDbLine
 10
21.8968
 20
254.688
 30
0
 11
21.8968
 21
259.788
 31
0
  0
LINE
  5
31A
330
112
100
AcDbEntity
  8
View
100
AcDbLine
 10
24.9968
 20
254.688
 30
0
 11
21.8968
 21
254.688
 31
0
  0
LINE
  5
31B
330
112
100
AcDbEntity
  8
View
100
AcDbLine
 10
24.9968
 20
259.788
 30
0
 11
24.9968
 21
254.688
 31
0
  0
LINE
  5
31C
330
112
100
AcDbEntity
  8
View
100
AcDbLine
 10
21.8968
 20
259.788
 30
0
 11
24.9968
 21
259.788
 31
0
  0
LINE
  5
31D
330
112
100
AcDbEntity
  8
View
100
AcDbLine
 10
135.897
 20
274.688
 30
0
 11
135.897
 21
277.788
 31
0
  0
LINE
  5
31E
330
112
100
AcDbEntity
  8
View
100
AcDbLine
 10
140.997
 20
274.688
 30
0
 11
135.897
 21
274.688
 31
0
  0
LINE
  5
31F
330
112
100
AcDbEntity
  8
View
100
AcDbLine
 10
140.997
 20
277.788
 30
0
 11
140.997
 21
274.688
 31
0
  0
LINE
  5
320
330
112
100
AcDbEntity
  8
View
100
AcDbLine
 10
135.897
 20
277.788
 30
0
 11
140.997
 21
277.788
 31
0
  0
LINE
  5
321
330
112
100
AcDbEntity
  8
View
100
AcDbLine
 10
30.8968
 20
274.688
 30
0
 11
30.8968
 21
277.788
 31
0
  0
LINE
  5
322
330
112
100
AcDbEntity
  8
View
100
AcDbLine
 10
35.9968
 20
274.688
 30
0
 11
30.8968
 21
274.688
 31
0
  0
LINE
  5
323
330
112
100
AcDbEntity
  8
View
100
AcDbLine
 10
35.9968
 20
277.788
 30
0
 11
35.9968
 21
274.688
 31
0
  0
LINE
  5
324
330
112
100
AcDbEntity
  8
View
100
AcDbLine
 10
30.8968
 20
277.788
 30
0
 11
35.9968
 21
277.788
 31
0
  0
CIRCLE
  5
325
330
112
100
AcDbEntity
  8
View
100
AcDbCircle
 10
136.897
 20
184.788
 40
2
  0
CIRCLE
  5
326
330
112
100
AcDbEntity
  8
View
100
AcDbCircle
 10
136.897
 20
264.688
 40
2
  0
CIRCLE
  5
327
330
112
100
AcDbEntity
  8
View
100
AcDbCircle
 10
34.9968
 20
264.688
 40
2
  0
CIRCLE
  5
328
330
112
100
AcDbEntity
  8
View
100
AcDbCircle
 10
34.9968
 20
184.788
 40
2
  0
LINE
  5
329
330
112
100
AcDbEntity
  8
View001
100
AcDbLine
 10
15.278
 20
42.6781
 30
0
 11
155.278
 21
42.6781
 31
0
  0
LINE
  5
32A
330
112
100
AcDbEntity
  8
View001
100
AcDbLine
 10
155.278
 20
42.6781
 30
0
 11
155.278
 21
154.678
 31
0
  0
LINE
  5
32B
330
112
100
AcDbEntity
  8
View001
100
AcDbLine
 10
155.278
 20
154.678
 30
0
 11
15.278
 21
154.678
 31
0
  0
LINE
  5
32C
330
112
100
AcDbEntity
  8
View001
100
AcDbLine
 10
15.278
 20
154.678
 30
0
 11
15.278
 21
42.6781
 31
0
  0
LINE
  5
32D
330
112
100
AcDbEntity
  8
View001
100
AcDbLine
 10
146.228
 20
133.728
 30
0
 11
146.228
 21
128.628
 31
0
  0
LINE
  5
32E
330
112
100
AcDbEntity
  8
View001
100
AcDbLine
 10
149.328
 20
133.728
 30
0
 11
146.228
 21
133.728
 31
0
  0
LINE
  5
32F
330
112
100
AcDbEntity
  8
View001
100
AcDbLine
 10
149.328
 20
128.628
 30
0
 11
149.328
 21
133.728
 31
0
  0
LINE
  5
330
330
112
100
AcDbEntity
  8
View001
100
AcDbLine
 10
146.228
 20
128.628
 30
0
 11
149.328
 21
128.628
 31
0
  0
LINE
  5
331
330
112
100
AcDbEntity
  8
View001
100
AcDbLine
 10
21.228
 20
133.728
 30
0
 11
21.228
 21
128.628
 31
0
  0
LINE
  5
332
330
112
100
AcDbEntity
  8
View001
100
AcDbLine
 10
24.328
 20
133.728
 30
0
 11
21.228
 21
133.728
 31
0
  0
LINE
  5
333
330
112
100
AcDbEntity
  8
View001
100
AcDbLine
 10
24.328
 20
128.628
 30
0
 11
24.328
 21
133.728
 31
0
  0
LINE
  5
334
330
112
100
AcDbEntity
  8
View001
100
AcDbLine
 10
21.228
 20
128.628
 30
0
 11
24.328
 21
128.628
 31
0
  0
LINE
  5
335
330
112
100
AcDbEntity
  8
View001
100
AcDbLine
 10
30.228
 20
151.728
 30
0
 11
30.228
 21
148.628
 31
0
  0
LINE
  5
336
330
112
100
AcDbEntity
  8
View001
100
AcDbLine
 10
35.328
 20
151.728
 30
0
 11
30.228
 21
151.728
 31
0
  0
LINE
  5
337
330
112
100
AcDbEntity
  8
View001
100
AcDbLine
 10
35.328
 20
148.628
 30
0
 11
35.328
 21
151.728
 31
0
  0
LINE
  5
338
330
112
100
AcDbEntity
  8
View001
100
AcDbLine
 10
30.228
 20
148.628
 30
0
 11
35.328
 21
148.628
 31
0
  0
LINE
  5
339
330
112
100
AcDbEntity
  8
View001
100
AcDbLine
 10
135.228
 20
151.728
 30
0
 11
135.228
 21
148.628
 31
0
  0
LINE
  5
33A
330
112
100
AcDbEntity
  8
View001
100
AcDbLine
 10
140.328
 20
151.728
 30
0
 11
135.228
 21
151.728
 31
0
  0
LINE
  5
33B
330
112
100
AcDbEntity
  8
View001
100
AcDbLine
 10
140.328
 20
148.628
 30
0
 11
140.328
 21
151.728
 31
0
  0
LINE
  5
33C
330
112
100
AcDbEntity
  8
View001
100
AcDbLine
 10
135.228
 20
148.628
 30
0
 11
140.328
 21
148.628
 31
0
  0
LINE
  5
33D
330
112
100
AcDbEntity
  8
View001
100
AcDbLine
 10
146.228
 20
68.7281
 30
0
 11
146.228
 21
63.6281
 31
0
  0
LINE
  5
33E
330
112
100
AcDbEntity
  8
View001
100
AcDbLine
 10
149.328
 20
68.7281
 30
0
 11
146.228
 21
68.7281
 31
0
  0
LINE
  5
33F
330
112
100
AcDbEntity
  8
View001
100
AcDbLine
 10
149.328
 20
63.6281
 30
0
 11
149.328
 21
68.7281
 31
0
  0
LINE
  5
340
330
112
100
AcDbEntity
  8
View001
100
AcDbLine
 10
146.228
 20
63.6281
 30
0
 11
149.328
 21
63.6281
 31
0
  0
LINE
  5
341
330
112
100
AcDbEntity
  8
View001
100
AcDbLine
 10
21.228
 20
68.7281
 30
0
 11
21.228
 21
63.6281
 31
0
  0
LINE
  5
342
330
112
100
AcDbEntity
  8
View001
100
AcDbLine
 10
24.328
 20
68.7281
 30
0
 11
21.228
 21
68.7281
 31
0
  0
LINE
  5
343
330
112
100
AcDbEntity
  8
View001
100
AcDbLine
 10
24.328
 20
63.6281
 30
0
 11
24.328
 21
68.7281
 31
0
  0
LINE
  5
344
330
112
100
AcDbEntity
  8
View001
100
AcDbLine
 10
21.228
 20
63.6281
 30
0
 11
24.328
 21
63.6281
 31
0
  0
LINE
  5
345
330
112
100
AcDbEntity
  8
View001
100
AcDbLine
 10
135.228
 20
48.7281
 30
0
 11
135.228
 21
45.6281
 31
0
  0
LINE
  5
346
330
112
100
AcDbEntity
  8
View001
100
AcDbLine
 10
140.328
 20
48.7281
 30
0
 11
135.228
 21
48.7281
 31
0
  0
LINE
  5
347
330
112
100
AcDbEntity
  8
View001
100
AcDbLine
 10
140.328
 20
45.6281
 30
0
 11
140.328
 21
48.7281
 31
0
  0
LINE
  5
348
330
112
100
AcDbEntity
  8
View001
100
AcDbLine
 10
135.228
 20
45.6281
 30
0
 11
140.328
 21
45.6281
 31
0
  0
LINE
  5
349
330
112
100
AcDbEntity
  8
View001
100
AcDbLine
 10
30.228
 20
48.7281
 30
0
 11
30.228
 21
45.6281
 31
0
  0
LINE
  5
34A
330
112
100
AcDbEntity
  8
View001
100
AcDbLine
 10
35.328
 20
48.7281
 30
0
 11
30.228
 21
48.7281
 31
0
  0
LINE
  5
34B
330
112
100
AcDbEntity
  8
View001
100
AcDbLine
 10
35.328
 20
45.6281
 30
0
 11
35.328
 21
48.7281
 31
0
  0
LINE
  5
34C
330
112
100
AcDbEntity
  8
View001
100
AcDbLine
 10
30.228
 20
45.6281
 30
0
 11
35.328
 21
45.6281
 31
0
  0
CIRCLE
  5
34D
330
112
100
AcDbEntity
  8
View001
100
AcDbCircle
 10
34.328
 20
138.628
 40
2
  0
CIRCLE
  5
34E
330
112
100
AcDbEntity
  8
View001
100
AcDbCircle
 10
136.228
 20
138.628
 40
2
  0
CIRCLE
  5
34F
330
112
100
AcDbEntity
  8
View001
100
AcDbCircle
 10
136.228
 20
58.7281
 40
2
  0
CIRCLE
  5
350
330
112
100
AcDbEntity
  8
View001
100
AcDbCircle
 10
34.328
 20
58.7281
 40
2
  0
CIRCLE
  5
351
330
112
100
AcDbEntity
  8
View001
100
AcDbCircle
 10
115.905
 20
122.314
 40
1.8
  0
CIRCLE
  5
352
330
112
100
AcDbEntity
  8
View001
100
AcDbCircle
 10
75.7547
 20
122.348
 40
1.8
  0
CIRCLE
  5
353
330
112
100
AcDbEntity
  8
View001
100
AcDbCircle
 10
75.793
 20
82.9881
 40
1.8
  0
CIRCLE
  5
354
330
112
100
AcDbEntity
  8
View001
100
AcDbCircle
 10
115.903
 20
82.9421
 40
1.8
  0
LINE
  5
355
330
112
100
AcDbEntity
  8
View002
100
AcDbLine
 10
171.831
 20
277.952
 30
0
 11
186.831
 21
277.952
 31
0
  0
LINE
  5
356
330
112
100
AcDbEntity
  8
View002
100
AcDbLine
 10
186.831
 20
277.952
 30
0
 11
186.831
 21
280.952
 31
0
  0
LINE
  5
357
330
112
100
AcDbEntity
  8
View002
100
AcDbLine
 10
186.831
 20
280.952
 30
0
 11
191.831
 21
280.952
 31
0
  0
LINE
  5
358
330
112
100
AcDbEntity
  8
View002
100
AcDbLine
 10
191.831
 20
280.952
 30
0
 11
191.831
 21
277.952
 31
0
  0
LINE
  5
359
330
112
100
AcDbEntity
  8
View002
100
AcDbLine
 10
191.831
 20
277.952
 30
0
 11
291.831
 21
277.952
 31
0
  0
LINE
  5
35A
330
112
100
AcDbEntity
  8
View002
100
AcDbLine
 10
291.831
 20
277.952
 30
0
 11
291.831
 21
280.952
 31
0
  0
LINE
  5
35B
330
112
100
AcDbEntity
  8
View002
100
AcDbLine
 10
291.831
 20
280.952
 30
0
 11
296.831
 21
280.952
 31
0
  0
LINE
  5
35C
330
112
100
AcDbEntity
  8
View002
100
AcDbLine
 10
296.831
 20
280.952
 30
0
 11
296.831
 21
277.952
 31
0
  0
LINE
  5
35D
330
112
100
AcDbEntity
  8
View002
100
AcDbLine
 10
296.831
 20
277.952
 30
0
 11
311.831
 21
277.952
 31
0
  0
LINE
  5
35E
330
112
100
AcDbEntity
  8
View002
100
AcDbLine
 10
311.831
 20
277.952
 30
0
 11
311.831
 21
237.952
 31
0
  0
LINE
  5
35F
330
112
100
AcDbEntity
  8
View002
100
AcDbLine
 10
311.831
 20
237.952
 30
0
 11
296.831
 21
237.952
 31
0
  0
LINE
  5
360
330
112
100
AcDbEntity
  8
View002
100
AcDbLine
 10
296.831
 20
237.952
 30
0
 11
296.831
 21
234.952
 31
0
  0
LINE
  5
361
330
112
100
AcDbEntity
  8
View002
100
AcDbLine
 10
296.831
 20
234.952
 30
0
 11
291.831
 21
234.952
 31
0
  0
LINE
  5
362
330
112
100
AcDbEntity
  8
View002
100
AcDbLine
 10
291.831
 20
234.952
 30
0
 11
291.831
 21
237.952
 31
0
  0
LINE
  5
363
330
112
100
AcDbEntity
  8
View002
100
AcDbLine
 10
291.831
 20
237.952
 30
0
 11
191.831
 21
237.952
 31
0
  0
LINE
  5
364
330
112
100
AcDbEntity
  8
View002
100
AcDbLine
 10
191.831
 20
237.952
 30
0
 11
191.831
 21
234.952
 31
0
  0
LINE
  5
365
330
112
100
AcDbEntity
  8
View002
100
AcDbLine
 10
191.831
 20
234.952
 30
0
 11
186.831
 21
234.952
 31
0
  0
LINE
  5
366
330
112
100
AcDbEntity
  8
View002
100
AcDbLine
 10
186.831
 20
234.952
 30
0
 11
186.831
 21
237.952
 31
0
  0
LINE
  5
367
330
112
100
AcDbEntity
  8
View002
100
AcDbLine
 10
186.831
 20
237.952
 30
0
 11
171.831
 21
237.952
 31
0
  0
LINE
  5
368
330
112
100
AcDbEntity
  8
View002
100
AcDbLine
 10
171.831
 20
237.952
 30
0
 11
171.831
 21
277.952
 31
0
  0
LINE
  5
369
330
112
100
AcDbEntity
  8
View002
100
AcDbLine
 10
259.831
 20
263.452
 30
0
 11
259.831
 21
275.452
 31
0
  0
LINE
  5
36A
330
112
100
AcDbEntity
  8
View002
100
AcDbLine
 10
291.831
 20
263.452
 30
0
 11
259.831
 21
263.452
 31
0
  0
LINE
  5
36B
330
112
100
AcDbEntity
  8
View002
100
AcDbLine
 10
291.831
 20
275.452
 30
0
 11
291.831
 21
263.452
 31
0
  0
LINE
  5
36C
330
112
100
AcDbEntity
  8
View002
100
AcDbLine
 10
259.831
 20
275.452
 30
0
 11
291.831
 21
275.452
 31
0
  0
LINE
  5
36D
330
112
100
AcDbEntity
  8
View002
100
AcDbLine
 10
184.931
 20
244.952
 30
0
 11
184.931
 21
262.952
 31
0
  0
LINE
  5
36E
330
112
100
AcDbEntity
  8
View002
100
AcDbLine
 10
197.931
 20
244.952
 30
0
 11
184.931
 21
244.952
 31
0
  0
LINE
  5
36F
330
112
100
AcDbEntity
  8
View002
100
AcDbLine
 10
197.931
 20
262.952
 30
0
 11
197.931
 21
244.952
 31
0
  0
LINE
  5
370
330
112
100
AcDbEntity
  8
View002
100
AcDbLine
 10
184.931
 20
262.952
 30
0
 11
197.931
 21
262.952
 31
0
  0
CIRCLE
  5
371
330
112
100
AcDbEntity
  8
View002
100
AcDbCircle
 10
209.331
 20
266.952
 40
5
  0
CIRCLE
  5
372
330
112
100
AcDbEntity
  8
View002
100
AcDbCircle
 10
209.331
 20
248.952
 40
5
  0
LINE
  5
373
330
112
100
AcDbEntity
  8
View002
100
AcDbLine
 10
287.331
 20
243.952
 30
0
 11
287.331
 21
251.952
 31
0
  0
LINE
  5
374
330
112
100
AcDbEntity
  8
View002
100
AcDbLine
 10
294.331
 20
243.952
 30
0
 11
287.331
 21
243.952
 31
0
  0
LINE
  5
375
330
112
100
AcDbEntity
  8
View002
100
AcDbLine
 10
294.331
 20
251.952
 30
0
 11
294.331
 21
243.952
 31
0
  0
LINE
  5
376
330
112
100
AcDbEntity
  8
View002
100
AcDbLine
 10
287.331
 20
251.952
 30
0
 11
294.331
 21
251.952
 31
0
  0
LINE
  5
377
330
112
100
AcDbEntity
  8
View002
100
AcDbLine
 10
277.331
 20
243.952
 30
0
 11
277.331
 21
251.952
 31
0
  0
LINE
  5
378
330
112
100
AcDbEntity
  8
View002
100
AcDbLine
 10
284.331
 20
243.952
 30
0
 11
277.331
 21
243.952
 31
0
  0
LINE
  5
379
330
112
100
AcDbEntity
  8
View002
100
AcDbLine
 10
284.331
 20
251.952
 30
0
 11
284.331
 21
243.952
 31
0
  0
LINE
  5
37A
330
112
100
AcDbEntity
  8
View002
100
AcDbLine
 10
277.331
 20
251.952
 30
0
 11
284.331
 21
251.952
 31
0
  0
LINE
  5
37B
330
112
100
AcDbEntity
  8
View002
100
AcDbLine
 10
267.081
 20
243.952
 30
0
 11
267.081
 21
251.952
 31
0
  0
LINE
  5
37C
330
112
100
AcDbEntity
  8
View002
100
AcDbLine
 10
274.081
 20
243.952
 30
0
 11
267.081
 21
243.952
 31
0
  0
LINE
  5
37D
330
112
100
AcDbEntity
  8
View002
100
AcDbLine
 10
274.081
 20
251.952
 30
0
 11
274.081
 21
243.952
 31
0
  0
LINE
  5
37E
330
112
100
AcDbEntity
  8
View002
100
AcDbLine
 10
267.081
 20
251.952
 30
0
 11
274.081
 21
251.952
 31
0
  0
LINE
  5
37F
330
112
100
AcDbEntity
  8
View002
100
AcDbLine
 10
256.831
 20
243.952
 30
0
 11
256.831
 21
251.952
 31
0
  0
LINE
  5
380
330
112
100
AcDbEntity
  8
View002
100
AcDbLine
 10
263.831
 20
243.952
 30
0
 11
256.831
 21
243.952
 31
0
  0
LINE
  5
381
330
112
100
AcDbEntity
  8
View002
100
AcDbLine
 10
263.831
 20
251.952
 30
0
 11
263.831
 21
243.952
 31
0
  0
LINE
  5
382
330
112
100
AcDbEntity
  8
View002
100
AcDbLine
 10
256.831
 20
251.952
 30
0
 11
263.831
 21
251.952
 31
0
  0
LINE
  5
383
330
112
100
AcDbEntity
  8
View002
100
AcDbLine
 10
246.831
 20
243.952
 30
0
 11
246.831
 21
251.952
 31
0
  0
LINE
  5
384
330
112
100
AcDbEntity
  8
View002
100
AcDbLine
 10
253.831
 20
243.952
 30
0
 11
246.831
 21
243.952
 31
0
  0
LINE
  5
385
330
112
100
AcDbEntity
  8
View002
100
AcDbLine
 10
253.831
 20
251.952
 30
0
 11
253.831
 21
243.952
 31
0
  0
LINE
  5
386
330
112
100
AcDbEntity
  8
View002
100
AcDbLine
 10
246.831
 20
251.952
 30
0
 11
253.831
 21
251.952
 31
0
  0
LINE
  5
387
330
112
100
AcDbEntity
  8
View002
100
AcDbLine
 10
236.581
 20
243.952
 30
0
 11
236.581
 21
251.952
 31
0
  0
LINE
  5
388
330
112
100
AcDbEntity
  8
View002
100
AcDbLine
 10
243.581
 20
243.952
 30
0
 11
236.581
 21
243.952
 31
0
  0
LINE
  5
389
330
112
100
AcDbEntity
  8
View002
100
AcDbLine
 10
243.581
 20
251.952
 30
0
 11
243.581
 21
243.952
 31
0
  0
LINE
  5
38A
330
112
100
AcDbEntity
  8
View002
100
AcDbLine
 10
236.581
 20
251.952
 30
0
 11
243.581
 21
251.952
 31
0
  0
LINE
  5
38B
330
112
100
AcDbEntity
  8
View002
100
AcDbLine
 10
226.331
 20
243.952
 30
0
 11
226.331
 21
251.952
 31
0
  0
LINE
  5
38C
330
112
100
AcDbEntity
  8
View002
100
AcDbLine
 10
233.331
 20
243.952
 30
0
 11
226.331
 21
243.952
 31
0
  0
LINE
  5
38D
330
112
100
AcDbEntity
  8
View002
100
AcDbLine
 10
233.331
 20
251.952
 30
0
 11
233.331
 21
243.952
 31
0
  0
LINE
  5
38E
330
112
100
AcDbEntity
  8
View002
100
AcDbLine
 10
226.331
 20
251.952
 30
0
 11
233.331
 21
251.952
 31
0
  0
CIRCLE
  5
38F
330
112
100
AcDbEntity
  8
View002
100
AcDbCircle
 10
235.331
 20
270.952
 40
2.5
  0
CIRCLE
  5
390
330
112
100
AcDbEntity
  8
View002
100
AcDbCircle
 10
225.331
 20
270.952
 40
2.5
  0
LINE
  5
391
330
112
100
AcDbEntity
  8
View002
100
AcDbLine
 10
302.731
 20
255.402
 30
0
 11
302.731
 21
260.502
 31
0
  0
LINE
  5
392
330
112
100
AcDbEntity
  8
View002
100
AcDbLine
 10
305.831
 20
255.402
 30
0
 11
302.731
 21
255.402
 31
0
  0
LINE
  5
393
330
112
100
AcDbEntity
  8
View002
100
AcDbLine
 10
305.831
 20
260.502
 30
0
 11
305.831
 21
255.402
 31
0
  0
LINE
  5
394
330
112
100
AcDbEntity
  8
View002
100
AcDbLine
 10
302.731
 20
260.502
 30
0
 11
305.831
 21
260.502
 31
0
  0
LINE
  5
395
330
112
100
AcDbEntity
  8
View002
100
AcDbLine
 10
177.831
 20
255.402
 30
0
 11
177.831
 21
260.502
 31
0
  0
LINE
  5
396
330
112
100
AcDbEntity
  8
View002
100
AcDbLine
 10
180.931
 20
255.402
 30
0
 11
177.831
 21
255.402
 31
0
  0
LINE
  5
397
330
112
100
AcDbEntity
  8
View002
100
AcDbLine
 10
180.931
 20
260.502
 30
0
 11
180.931
 21
255.402
 31
0
  0
LINE
  5
398
330
112
100
AcDbEntity
  8
View002
100
AcDbLine
 10
177.831
 20
260.502
 30
0
 11
180.931
 21
260.502
 31
0
  0
CIRCLE
  5
399
330
112
100
AcDbEntity
  8
View002
100
AcDbCircle
 10
295.831
 20
241.952
 40
1
  0
CIRCLE
  5
39A
330
112
100
AcDbEntity
  8
View002
100
AcDbCircle
 10
295.831
 20
258.952
 40
1
  0
CIRCLE
  5
39B
330
112
100
AcDbEntity
  8
View002
100
AcDbCircle
 10
224.331
 20
241.952
 40
1
  0
CIRCLE
  5
39C
330
112
100
AcDbEntity
  8
View002
100
AcDbCircle
 10
224.331
 20
258.952
 40
1
  0
LINE
  5
39D
330
112
100
AcDbEntity
  8
View003
100
AcDbLine
 10
172.044
 20
215.405
 30
0
 11
187.044
 21
215.405
 31
0
  0
LINE
  5
39E
330
112
100
AcDbEntity
  8
View003
100
AcDbLine
 10
187.044
 20
215.405
 30
0
 11
187.044
 21
218.405
 31
0
  0
LINE
  5
39F
330
112
100
AcDbEntity
  8
View003
100
AcDbLine
 10
187.044
 20
218.405
 30
0
 11
192.044
 21
218.405
 31
0
  0
LINE
  5
3A0
330
112
100
AcDbEntity
  8
View003
100
AcDbLine
 10
192.044
 20
218.405
 30
0
 11
192.044
 21
215.405
 31
0
  0
LINE
  5
3A1
330
112
100
AcDbEntity
  8
View003
100
AcDbLine
 10
192.044
 20
215.405
 30
0
 11
292.044
 21
215.405
 31
0
  0
LINE
  5
3A2
330
112
100
AcDbEntity
  8
View003
100
AcDbLine
 10
292.044
 20
215.405
 30
0
 11
292.044
 21
218.405
 31
0
  0
LINE
  5
3A3
330
112
100
AcDbEntity
  8
View003
100
AcDbLine
 10
292.044
 20
218.405
 30
0
 11
297.044
 21
218.405
 31
0
  0
LINE
  5
3A4
330
112
100
AcDbEntity
  8
View003
100
AcDbLine
 10
297.044
 20
218.405
 30
0
 11
297.044
 21
215.405
 31
0
  0
LINE
  5
3A5
330
112
100
AcDbEntity
  8
View003
100
AcDbLine
 10
297.044
 20
215.405
 30
0
 11
312.044
 21
215.405
 31
0
  0
LINE
  5
3A6
330
112
100
AcDbEntity
  8
View003
100
AcDbLine
 10
312.044
 20
215.405
 30
0
 11
312.044
 21
175.405
 31
0
  0
LINE
  5
3A7
330
112
100
AcDbEntity
  8
View003
100
AcDbLine
 10
312.044
 20
175.405
 30
0
 11
297.044
 21
175.405
 31
0
  0
LINE
  5
3A8
330
112
100
AcDbEntity
  8
View003
100
AcDbLine
 10
297.044
 20
175.405
 30
0
 11
297.044
 21
172.405
 31
0
  0
LINE
  5
3A9
330
112
100
AcDbEntity
  8
View003
100
AcDbLine
 10
297.044
 20
172.405
 30
0
 11
292.044
 21
172.405
 31
0
  0
LINE
  5
3AA
330
112
100
AcDbEntity
  8
View003
100
AcDbLine
 10
292.044
 20
172.405
 30
0
 11
292.044
 21
175.405
 31
0
  0
LINE
  5
3AB
330
112
100
AcDbEntity
  8
View003
100
AcDbLine
 10
292.044
 20
175.405
 30
0
 11
192.044
 21
175.405
 31
0
  0
LINE
  5
3AC
330
112
100
AcDbEntity
  8
View003
100
AcDbLine
 10
192.044
 20
175.405
 30
0
 11
192.044
 21
172.405
 31
0
  0
LINE
  5
3AD
330
112
100
AcDbEntity
  8
View003
100
AcDbLine
 10
192.044
 20
172.405
 30
0
 11
187.044
 21
172.405
 31
0
  0
LINE
  5
3AE
330
112
100
AcDbEntity
  8
View003
100
AcDbLine
 10
187.044
 20
172.405
 30
0
 11
187.044
 21
175.405
 31
0
  0
LINE
  5
3AF
330
112
100
AcDbEntity
  8
View003
100
AcDbLine
 10
187.044
 20
175.405
 30
0
 11
172.044
 21
175.405
 31
0
  0
LINE
  5
3B0
330
112
100
AcDbEntity
  8
View003
100
AcDbLine
 10
172.044
 20
175.405
 30
0
 11
172.044
 21
215.405
 31
0
  0
LINE
  5
3B1
330
112
100
AcDbEntity
  8
View003
100
AcDbLine
 10
222.344
 20
196.622
 30
0
 11
219.544
 21
208.622
 31
0
  0
LINE
  5
3B2
330
112
100
AcDbEntity
  8
View003
100
AcDbLine
 10
238.844
 20
196.622
 30
0
 11
222.344
 21
196.622
 31
0
  0
LINE
  5
3B3
330
112
100
AcDbEntity
  8
View003
100
AcDbLine
 10
242.044
 20
208.622
 30
0
 11
238.844
 21
196.622
 31
0
  0
LINE
  5
3B4
330
112
100
AcDbEntity
  8
View003
100
AcDbLine
 10
219.544
 20
208.622
 30
0
 11
242.044
 21
208.622
 31
0
  0
CIRCLE
  5
3B5
330
112
100
AcDbEntity
  8
View003
100
AcDbCircle
 10
279.144
 20
195.405
 40
6.5
  0
CIRCLE
  5
3B6
330
112
100
AcDbEntity
  8
View003
100
AcDbCircle
 10
192.044
 20
195.405
 40
3.5
  0
CIRCLE
  5
3B7
330
112
100
AcDbEntity
  8
View003
100
AcDbCircle
 10
230.544
 20
185.405
 40
3.5
  0
LINE
  5
3B8
330
112
100
AcDbEntity
  8
View003
100
AcDbLine
 10
302.944
 20
192.855
 30
0
 11
302.944
 21
197.955
 31
0
  0
LINE
  5
3B9
330
112
100
AcDbEntity
  8
View003
100
AcDbLine
 10
306.044
 20
192.855
 30
0
 11
302.944
 21
192.855
 31
0
  0
LINE
  5
3BA
330
112
100
AcDbEntity
  8
View003
100
AcDbLine
 10
306.044
 20
197.955
 30
0
 11
306.044
 21
192.855
 31
0
  0
LINE
  5
3BB
330
112
100
AcDbEntity
  8
View003
100
AcDbLine
 10
302.944
 20
197.955
 30
0
 11
306.044
 21
197.955
 31
0
  0
LINE
  5
3BC
330
112
100
AcDbEntity
  8
View003
100
AcDbLine
 10
178.044
 20
192.855
 30
0
 11
178.044
 21
197.955
 31
0
  0
LINE
  5
3BD
330
112
100
AcDbEntity
  8
View003
100
AcDbLine
 10
181.144
 20
192.855
 30
0
 11
178.044
 21
192.855
 31
0
  0
LINE
  5
3BE
330
112
100
AcDbEntity
  8
View003
100
AcDbLine
 10
181.144
 20
197.955
 30
0
 11
181.144
 21
192.855
 31
0
  0
LINE
  5
3BF
330
112
100
AcDbEntity
  8
View003
100
AcDbLine
 10
178.044
 20
197.955
 30
0
 11
181.144
 21
197.955
 31
0
  0
CIRCLE
  5
3C0
330
112
100
AcDbEntity
  8
View003
100
AcDbCircle
 10
218.044
 20
202.622
 40
1.5
  0
CIRCLE
  5
3C1
330
112
100
AcDbEntity
  8
View003
100
AcDbCircle
 10
243.044
 20
202.622
 40
1.5
  0
LINE
  5
3C2
330
112
100
AcDbEntity
  8
View004
100
AcDbLine
 10
174.845
 20
137.702
 30
0
 11
174.845
 21
155.202
 31
0
  0
LINE
  5
3C3
330
112
100
AcDbEntity
  8
View004
100
AcDbLine
 10
174.845
 20
155.202
 30
0
 11
189.845
 21
155.202
 31
0
  0
LINE
  5
3C4
330
112
100
AcDbEntity
  8
View004
100
AcDbLine
 10
189.845
 20
155.202
 30
0
 11
189.845
 21
158.202
 31
0
  0
LINE
  5
3C5
330
112
100
AcDbEntity
  8
View004
100
AcDbLine
 10
189.845
 20
158.202
 30
0
 11
194.845
 21
158.202
 31
0
  0
LINE
  5
3C6
330
112
100
AcDbEntity
  8
View004
100
AcDbLine
 10
194.845
 20
158.202
 30
0
 11
194.845
 21
155.202
 31
0
  0
LINE
  5
3C7
330
112
100
AcDbEntity
  8
View004
100
AcDbLine
 10
194.845
 20
155.202
 30
0
 11
254.845
 21
155.202
 31
0
  0
LINE
  5
3C8
330
112
100
AcDbEntity
  8
View004
100
AcDbLine
 10
254.845
 20
155.202
 30
0
 11
254.845
 21
158.202
 31
0
  0
LINE
  5
3C9
330
112
100
AcDbEntity
  8
View004
100
AcDbLine
 10
254.845
 20
158.202
 30
0
 11
259.845
 21
158.202
 31
0
  0
LINE
  5
3CA
330
112
100
AcDbEntity
  8
View004
100
AcDbLine
 10
259.845
 20
158.202
 30
0
 11
259.845
 21
155.202
 31
0
  0
LINE
  5
3CB
330
112
100
AcDbEntity
  8
View004
100
AcDbLine
 10
259.845
 20
155.202
 30
0
 11
274.845
 21
155.202
 31
0
  0
LINE
  5
3CC
330
112
100
AcDbEntity
  8
View004
100
AcDbLine
 10
274.845
 20
155.202
 30
0
 11
274.845
 21
137.702
 31
0
  0
LINE
  5
3CD
330
112
100
AcDbEntity
  8
View004
100
AcDbLine
 10
274.845
 20
137.702
 30
0
 11
277.845
 21
137.702
 31
0
  0
LINE
  5
3CE
330
112
100
AcDbEntity
  8
View004
100
AcDbLine
 10
277.845
 20
137.702
 30
0
 11
277.845
 21
132.702
 31
0
  0
LINE
  5
3CF
330
112
100
AcDbEntity
  8
View004
100
AcDbLine
 10
277.845
 20
132.702
 30
0
 11
274.845
 21
132.702
 31
0
  0
LINE
  5
3D0
330
112
100
AcDbEntity
  8
View004
100
AcDbLine
 10
274.845
 20
132.702
 30
0
 11
274.845
 21
115.202
 31
0
  0
LINE
  5
3D1
330
112
100
AcDbEntity
  8
View004
100
AcDbLine
 10
274.845
 20
115.202
 30
0
 11
259.845
 21
115.202
 31
0
  0
LINE
  5
3D2
330
112
100
AcDbEntity
  8
View004
100
AcDbLine
 10
259.845
 20
112.202
 30
0
 11
259.845
 21
115.202
 31
0
  0
LINE
  5
3D3
330
112
100
AcDbEntity
  8
View004
100
AcDbLine
 10
254.845
 20
112.202
 30
0
 11
259.845
 21
112.202
 31
0
  0
LINE
  5
3D4
330
112
100
AcDbEntity
  8
View004
100
AcDbLine
 10
254.845
 20
115.202
 30
0
 11
254.845
 21
112.202
 31
0
  0
LINE
  5
3D5
330
112
100
AcDbEntity
  8
View004
100
AcDbLine
 10
254.845
 20
115.202
 30
0
 11
194.845
 21
115.202
 31
0
  0
LINE
  5
3D6
330
112
100
AcDbEntity
  8
View004
100
AcDbLine
 10
194.845
 20
112.202
 30
0
 11
194.845
 21
115.202
 31
0
  0
LINE
  5
3D7
330
112
100
AcDbEntity
  8
View004
100
AcDbLine
 10
189.845
 20
112.202
 30
0
 11
194.845
 21
112.202
 31
0
  0
LINE
  5
3D8
330
112
100
AcDbEntity
  8
View004
100
AcDbLine
 10
189.845
 20
115.202
 30
0
 11
189.845
 21
112.202
 31
0
  0
LINE
  5
3D9
330
112
100
AcDbEntity
  8
View004
100
AcDbLine
 10
189.845
 20
115.202
 30
0
 11
174.845
 21
115.202
 31
0
  0
LINE
  5
3DA
330
112
100
AcDbEntity
  8
View004
100
AcDbLine
 10
174.845
 20
115.202
 30
0
 11
174.845
 21
132.702
 31
0
  0
LINE
  5
3DB
330
112
100
AcDbEntity
  8
View004
100
AcDbLine
 10
171.845
 20
132.702
 30
0
 11
174.845
 21
132.702
 31
0
  0
LINE
  5
3DC
330
112
100
AcDbEntity
  8
View004
100
AcDbLine
 10
171.845
 20
137.702
 30
0
 11
171.845
 21
132.702
 31
0
  0
LINE
  5
3DD
330
112
100
AcDbEntity
  8
View004
100
AcDbLine
 10
174.845
 20
137.702
 30
0
 11
171.845
 21
137.702
 31
0
  0
LINE
  5
3DE
330
112
100
AcDbEntity
  8
View005
100
AcDbLine
 10
388.965
 20
138.282
 30
0
 11
388.965
 21
155.782
 31
0
  0
LINE
  5
3DF
330
112
100
AcDbEntity
  8
View005
100
AcDbLine
 10
388.965
 20
155.782
 30
0
 11
373.965
 21
155.782
 31
0
  0
LINE
  5
3E0
330
112
100
AcDbEntity
  8
View005
100
AcDbLine
 10
373.965
 20
155.782
 30
0
 11
373.965
 21
158.782
 31
0
  0
LINE
  5
3E1
330
112
100
AcDbEntity
  8
View005
100
AcDbLine
 10
373.965
 20
158.782
 30
0
 11
368.965
 21
158.782
 31
0
  0
LINE
  5
3E2
330
112
100
AcDbEntity
  8
View005
100
AcDbLine
 10
368.965
 20
158.782
 30
0
 11
368.965
 21
155.782
 31
0
  0
LINE
  5
3E3
330
112
100
AcDbEntity
  8
View005
100
AcDbLine
 10
368.965
 20
155.782
 30
0
 11
308.965
 21
155.782
 31
0
  0
LINE
  5
3E4
330
112
100
AcDbEntity
  8
View005
100
AcDbLine
 10
308.965
 20
155.782
 30
0
 11
308.965
 21
158.782
 31
0
  0
LINE
  5
3E5
330
112
100
AcDbEntity
  8
View005
100
AcDbLine
 10
308.965
 20
158.782
 30
0
 11
303.965
 21
158.782
 31
0
  0
LINE
  5
3E6
330
112
100
AcDbEntity
  8
View005
100
AcDbLine
 10
303.965
 20
158.782
 30
0
 11
303.965
 21
155.782
 31
0
  0
LINE
  5
3E7
330
112
100
AcDbEntity
  8
View005
100
AcDbLine
 10
303.965
 20
155.782
 30
0
 11
288.965
 21
155.782
 31
0
  0
LINE
  5
3E8
330
112
100
AcDbEntity
  8
View005
100
AcDbLine
 10
288.965
 20
155.782
 30
0
 11
288.965
 21
138.282
 31
0
  0
LINE
  5
3E9
330
112
100
AcDbEntity
  8
View005
100
AcDbLine
 10
288.965
 20
138.282
 30
0
 11
285.965
 21
138.282
 31
0
  0
LINE
  5
3EA
330
112
100
AcDbEntity
  8
View005
100
AcDbLine
 10
285.965
 20
138.282
 30
0
 11
285.965
 21
133.282
 31
0
  0
LINE
  5
3EB
330
112
100
AcDbEntity
  8
View005
100
AcDbLine
 10
285.965
 20
133.282
 30
0
 11
288.965
 21
133.282
 31
0
  0
LINE
  5
3EC
330
112
100
AcDbEntity
  8
View005
100
AcDbLine
 10
288.965
 20
133.282
 30
0
 11
288.965
 21
115.782
 31
0
  0
LINE
  5
3ED
330
112
100
AcDbEntity
  8
View005
100
AcDbLine
 10
288.965
 20
115.782
 30
0
 11
303.965
 21
115.782
 31
0
  0
LINE
  5
3EE
330
112
100
AcDbEntity
  8
View005
100
AcDbLine
 10
303.965
 20
112.782
 30
0
 11
303.965
 21
115.782
 31
0
  0
LINE
  5
3EF
330
112
100
AcDbEntity
  8
View005
100
AcDbLine
 10
308.965
 20
112.782
 30
0
 11
303.965
 21
112.782
 31
0
  0
LINE
  5
3F0
330
112
100
AcDbEntity
  8
View005
100
AcDbLine
 10
308.965
 20
115.782
 30
0
 11
308.965
 21
112.782
 31
0
  0
LINE
  5
3F1
330
112
100
AcDbEntity
  8
View005
100
AcDbLine
 10
308.965
 20
115.782
 30
0
 11
368.965
 21
115.782
 31
0
  0
LINE
  5
3F2
330
112
100
AcDbEntity
  8
View005
100
AcDbLine
 10
368.965
 20
112.782
 30
0
 11
368.965
 21
115.782
 31
0
  0
LINE
  5
3F3
330
112
100
AcDbEntity
  8
View005
100
AcDbLine
 10
373.965
 20
112.782
 30
0
 11
368.965
 21
112.782
 31
0
  0
LINE
  5
3F4
330
112
100
AcDbEntity
  8
View005
100
AcDbLine
 10
373.965
 20
115.782
 30
0
 11
373.965
 21
112.782
 31
0
  0
LINE
  5
3F5
330
112
100
AcDbEntity
  8
View005
100
AcDbLine
 10
373.965
 20
115.782
 30
0
 11
388.965
 21
115.782
 31
0
  0
LINE
  5
3F6
330
112
100
AcDbEntity
  8
View005
100
AcDbLine
 10
388.965
 20
115.782
 30
0
 11
388.965
 21
133.282
 31
0
  0
LINE
  5
3F7
330
112
100
AcDbEntity
  8
View005
100
AcDbLine
 10
391.965
 20
133.282
 30
0
 11
388.965
 21
133.282
 31
0
  0
LINE
  5
3F8
330
112
100
AcDbEntity
  8
View005
100
AcDbLine
 10
391.965
 20
138.282
 30
0
 11
391.965
 21
133.282
 31
0
  0
LINE
  5
3F9
330
112
100
AcDbEntity
  8
View005
100
AcDbLine
 10
388.965
 20
138.282
 30
0
 11
391.965
 21
138.282
 31
0
  0
ENDSEC
  0
SECTION
  2
OBJECTS
  0
DICTIONARY
  5
500
330
0
100
AcDbDictionary
  3
ACAD_GROUP
350
501
  0
DICTIONARY
  5
501
330
500
100
AcDbDictionary
  0
ENDSEC
  0
EOF